<svg width="58" height="40" viewBox="0 0 58 40" fill="none" xmlns="http://www.w3.org/2000/svg">
<path d="M42.6635 20.157C41.8649 19.9616 41.3141 19.8267 41.7338 18.9755C42.6402 17.1219 42.7364 15.5242 41.7542 14.3822C39.9092 12.2426 34.8641 12.3565 29.0816 14.3241C29.0816 14.3194 27.2658 14.9683 27.7292 13.7962C28.6211 11.4774 28.4841 9.53311 27.0997 8.41212C23.9636 5.85848 15.625 8.50747 8.46975 14.3171C3.10985 18.6685 0 23.2781 0 27.2667C0 34.8974 12.043 40 23.8266 40C39.271 40 49.5477 32.2461 49.5477 26.4597C49.5477 22.9595 45.922 20.9756 42.6635 20.157ZM23.8587 36.5789C14.4592 37.3231 6.3392 33.9113 5.73005 28.9621C5.1209 24.0107 12.247 19.3918 21.6494 18.6406C31.0519 17.8964 39.1689 21.3059 39.7781 26.2573C40.3872 31.2134 33.2611 35.8346 23.8587 36.5789ZM58 13.945C57.9992 12.1131 57.5463 10.2993 56.6671 8.60705C55.7878 6.91484 54.4995 5.37738 52.8756 4.08247C51.2518 2.78756 49.3242 1.76055 47.2029 1.06007C45.0817 0.359603 42.8083 -0.000610161 40.5126 7.75827e-07C39.9722 7.75827e-07 39.454 0.171277 39.072 0.47615C38.6899 0.781023 38.4753 1.19452 38.4753 1.62568C38.4753 2.05683 38.6899 2.47033 39.072 2.7752C39.454 3.08008 39.9722 3.25135 40.5126 3.25135C44.0694 3.25197 47.4802 4.37987 49.995 6.387C52.5098 8.39412 53.9225 11.1161 53.9225 13.9543C53.9227 14.1679 53.9756 14.3795 54.0783 14.5768C54.1809 14.7741 54.3312 14.9534 54.5207 15.1043C54.7101 15.2553 54.935 15.375 55.1824 15.4566C55.4298 15.5382 55.695 15.5801 55.9627 15.58C56.2304 15.5798 56.4955 15.5376 56.7428 15.4557C56.9901 15.3738 57.2147 15.2538 57.4039 15.1027C57.5931 14.9515 57.7431 14.7721 57.8454 14.5746C57.9477 14.3772 58.0002 14.1656 58 13.952V13.945ZM49.8946 13.7078C49.4334 11.9259 48.3285 10.2907 46.7161 9.00411C45.1038 7.71752 43.0546 6.83581 40.8215 6.46782C40.5561 6.41848 40.281 6.41208 40.0124 6.44897C39.7439 6.48587 39.4873 6.56533 39.2579 6.68265C39.0284 6.79997 38.8308 6.95278 38.6766 7.13206C38.5223 7.31135 38.4147 7.51346 38.36 7.72649C38.3053 7.93951 38.3046 8.15912 38.358 8.37236C38.4114 8.58559 38.5178 8.78814 38.6709 8.96802C38.824 9.14791 39.0207 9.3015 39.2494 9.41973C39.4781 9.53795 39.7342 9.61842 40.0025 9.65638C41.4543 9.89502 42.7866 10.4678 43.835 11.3039C44.8834 12.1401 45.6018 13.203 45.9016 14.3613C46.0111 14.7837 46.3259 15.1543 46.7772 15.3919C47.2284 15.6295 47.7793 15.7147 48.309 15.6288C48.8379 15.5409 49.3016 15.2895 49.5988 14.9295C49.8959 14.5695 50.0023 14.1302 49.8946 13.7078ZM19.038 23.4921C15.249 24.1014 12.693 26.6364 13.3283 29.1529C13.9637 31.6739 17.5457 33.2229 21.3347 32.6135C25.1207 32.0042 27.6768 29.4692 27.0443 26.9527C26.4089 24.4363 22.8211 22.8827 19.038 23.4921Z" fill="white"/>
</svg>
