<svg width="50" height="40" viewBox="0 0 50 40" fill="none" xmlns="http://www.w3.org/2000/svg">
<path d="M50 4.74473C48.1613 5.54653 46.186 6.08828 44.1095 6.33316C46.2521 5.0715 47.8551 3.0858 48.6193 0.746578C46.6063 1.92325 44.4031 2.75149 42.1056 3.19531C40.5606 1.57192 38.5142 0.495911 36.2841 0.134339C34.054 -0.227233 31.7649 0.145862 29.7724 1.1957C27.7798 2.24554 26.1952 3.91338 25.2646 5.94028C24.3339 7.96719 24.1093 10.2398 24.6256 12.4051C20.5467 12.2036 16.5565 11.1603 12.9138 9.34294C9.27116 7.52558 6.05752 4.97478 3.48146 1.85609C2.60063 3.35134 2.09416 5.08495 2.09416 6.93125C2.09318 8.59335 2.5091 10.23 3.30503 11.696C4.10095 13.1619 5.25227 14.4119 6.65683 15.335C5.02791 15.284 3.43494 14.8508 2.01048 14.0716V14.2016C2.01032 16.5328 2.82972 18.7922 4.32966 20.5965C5.82959 22.4008 7.91767 23.6388 10.2396 24.1006C8.72849 24.503 7.14423 24.5623 5.60645 24.2739C6.26155 26.2797 7.53765 28.0338 9.25607 29.2904C10.9745 30.5471 13.0492 31.2434 15.1898 31.2821C11.5561 34.0892 7.06837 35.612 2.44869 35.6053C1.63036 35.6055 0.812729 35.5584 0 35.4644C4.68924 38.4314 10.1478 40.0061 15.7227 40C34.5944 40 44.911 24.6185 44.911 11.2783C44.911 10.8449 44.9 10.4072 44.8802 9.97375C46.8869 8.54563 48.6191 6.77717 49.9956 4.75123L50 4.74473Z" fill="white"/>
</svg>
