<svg width="58" height="40" viewBox="0 0 58 40" fill="none" xmlns="http://www.w3.org/2000/svg">
<path d="M56.7892 6.16959C56.4523 4.98101 55.8101 3.89842 54.9249 3.02665C54.0396 2.15488 52.9413 1.52345 51.7362 1.19352C47.2126 5.70583e-05 29.0277 5.73468e-05 29.0277 5.73468e-05C29.0277 5.73468e-05 10.8771 -0.0285719 6.30639 1.19352C5.10325 1.5249 4.00706 2.15699 3.1238 3.02868C2.24053 3.90038 1.60006 4.9822 1.26428 6.16959C0.40525 10.7399 -0.0178339 15.3796 0.000575796 20.0278C-0.00780614 24.6536 0.415212 29.2704 1.26428 33.8197C1.60114 35.0078 2.24181 36.0904 3.12477 36.9636C4.00773 37.8369 5.10333 38.4715 6.30639 38.8065C10.83 40 29.0277 40 29.0277 40C29.0277 40 47.1673 40 51.7362 38.8065C52.9412 38.473 54.039 37.839 54.9239 36.9657C55.8089 36.0923 56.4512 35.0089 56.7892 33.8197C57.6214 29.2731 58.0275 24.6495 57.9985 20.0278C58.0275 15.3756 57.6305 10.7448 56.7892 6.16959ZM23.2186 28.5932V11.4248L38.3558 20.0278L23.2186 28.5932Z" fill="white"/>
</svg>
